HIERARCHY
ROOT Hips
{
	OFFSET 0.000000 0.000000 0.000000
	CHANNELS 6 Xposition Yposition Zposition Xrotation Yrotation Zrotation
	JOINT LeftUpLeg_virtual
	{
		OFFSET 0.000000 0.000000 0.000000
		CHANNELS 3 Xrotation Yrotation Zrotation
		JOINT LeftUpLeg
		{
			OFFSET 15.427100 -6.655098 0.678600
			CHANNELS 3 Xrotation Yrotation Zrotation
			JOINT LeftLeg
			{
				OFFSET 4.081073 -39.591068 13.024000
				CHANNELS 3 Xrotation Yrotation Zrotation
				JOINT LeftFoot
				{
					OFFSET -4.081074 -37.707932 -15.979700
					CHANNELS 3 Xrotation Yrotation Zrotation
					JOINT LeftToeBase
					{
						OFFSET 5.346399 -15.068900 20.645000
						CHANNELS 3 Xrotation Yrotation Zrotation
						JOINT LeftToe_End
						{
							OFFSET 2.754700 0.931300 11.300900
							CHANNELS 3 Xrotation Yrotation Zrotation
							End Site
							{
								OFFSET 0 0 0
							}
						}
					}
				}
			}
		}
	}
	JOINT RightUpLeg_virtual
	{
		OFFSET 0.000000 0.000000 0.000000
		CHANNELS 3 Xrotation Yrotation Zrotation
		JOINT RightUpLeg
		{
			OFFSET -15.569500 -6.655098 0.678600
			CHANNELS 3 Xrotation Yrotation Zrotation
			JOINT RightLeg
			{
				OFFSET -4.081825 -39.591045 13.023800
				CHANNELS 3 Xrotation Yrotation Zrotation
				JOINT RightFoot
				{
					OFFSET 4.081824 -37.707954 -15.979600
					CHANNELS 3 Xrotation Yrotation Zrotation
					JOINT RightToeBase
					{
						OFFSET -5.346400 -15.068900 20.645000
						CHANNELS 3 Xrotation Yrotation Zrotation
						JOINT RightToe_End
						{
							OFFSET -2.754700 0.931300 11.300900
							CHANNELS 3 Xrotation Yrotation Zrotation
							End Site
							{
								OFFSET 0 0 0
							}
						}
					}
				}
			}
		}
	}
	JOINT Spine_virtual
	{
		OFFSET 0.000000 0.000000 0.000000
		CHANNELS 3 Xrotation Yrotation Zrotation
		JOINT Spine
		{
			OFFSET -0.279200 12.230698 -2.892100
			CHANNELS 3 Xrotation Yrotation Zrotation
			JOINT Spine1
			{
				OFFSET -0.232667 10.192268 -1.242267
				CHANNELS 3 Xrotation Yrotation Zrotation
				JOINT Spine1_split
				{
					OFFSET -0.232667 10.192268 -1.242267
					CHANNELS 3 Xrotation Yrotation Zrotation
					JOINT Spine2
					{
						OFFSET -0.232667 10.192268 -1.242267
						CHANNELS 3 Xrotation Yrotation Zrotation
						JOINT Neck_virtual
						{
							OFFSET 0.000000 0.000000 0.000000
							CHANNELS 3 Xrotation Yrotation Zrotation
							JOINT Neck
							{
								OFFSET -0.418800 17.814194 8.416900
								CHANNELS 3 Xrotation Yrotation Zrotation
								JOINT Head
								{
									OFFSET 0.000000 7.031097 3.806800
									CHANNELS 3 Xrotation Yrotation Zrotation
									JOINT HeadTop_End
									{
										OFFSET 0.000000 24.646606 12.978600
										CHANNELS 3 Xrotation Yrotation Zrotation
										End Site
										{
											OFFSET 0 0 0
										}
									}
								}
							}
						}
						JOINT LeftShoulder_virtual
						{
							OFFSET 0.000000 0.000000 0.000000
							CHANNELS 3 Xrotation Yrotation Zrotation
							JOINT LeftShoulder
							{
								OFFSET 8.476499 7.247704 -3.868750
								CHANNELS 3 Xrotation Yrotation Zrotation
								JOINT LeftShoulder_split
								{
									OFFSET 8.476499 7.247704 -3.868750
									CHANNELS 3 Xrotation Yrotation Zrotation
									JOINT LeftArm
									{
										OFFSET 9.308998 -2.777710 0.208600
										CHANNELS 3 Xrotation Yrotation Zrotation
										JOINT LeftForeArm
										{
											OFFSET 29.972298 0.000000 0.000000
											CHANNELS 3 Xrotation Yrotation Zrotation
											JOINT LeftHand
											{
												OFFSET 26.026505 0.000000 0.000000
												CHANNELS 3 Xrotation Yrotation Zrotation
												End Site
												{
													OFFSET 0 0 0
												}
											}
										}
									}
								}
							}
						}
						JOINT RightShoulder_virtual
						{
							OFFSET 0.000000 0.000000 0.000000
							CHANNELS 3 Xrotation Yrotation Zrotation
							JOINT RightShoulder
							{
								OFFSET -7.570500 7.247704 -3.868750
								CHANNELS 3 Xrotation Yrotation Zrotation
								JOINT RightShoulder_split
								{
									OFFSET -7.570500 7.247704 -3.868750
									CHANNELS 3 Xrotation Yrotation Zrotation
									JOINT RightArm
									{
										OFFSET -9.308998 -2.777710 0.208500
										CHANNELS 3 Xrotation Yrotation Zrotation
										JOINT RightForeArm
										{
											OFFSET -29.972300 0.000000 0.000000
											CHANNELS 3 Xrotation Yrotation Zrotation
											JOINT RightHand
											{
												OFFSET -26.026505 0.000000 0.000000
												CHANNELS 3 Xrotation Yrotation Zrotation
												End Site
												{
													OFFSET 0 0 0
												}
											}
										}
									}
								}
							}
						}
					}
				}
			}
		}
	}
}
MOTION
Frames: 9
Frame Time: 0.03333333
5.546461 74.040565 -3.920666 0.000000 0.000000 0.000000 2.580069 -54.236633 4.075974 -43.448199 0.862328 24.703944 42.038216 -3.047046 1.101367 -0.811447 -9.308990 -19.248062 -0.183531 0.263165 0.405625 0.000000 0.000000 0.000000 1.212421 -54.678933 3.759022 -31.332065 -25.082388 -40.085690 42.219834 10.797477 -1.777977 -16.467130 -6.333087 18.120565 2.395399 0.567908 0.368718 0.000000 0.000000 0.000000 4.305872 -51.567580 4.757083 9.041103 10.969610 -1.718127 3.566261 4.722410 -1.428390 0.350129 0.023725 -0.094457 0.000000 0.000000 0.000000 3.894235 4.883285 -1.158326 -2.703719 2.987335 3.131659 -5.376040 40.249113 -6.534936 0.000000 0.000000 0.000000 4.360968 4.761628 -1.909766 0.365294 -8.751283 -15.867631 -6.131639 2.047294 1.303203 -11.600758 -39.357705 -19.580518 -6.304071 -66.398974 -3.168038 0.000000 0.000000 0.000000 5.616602 5.252120 -1.487501 -4.919477 20.616233 -19.468078 1.903372 -5.247572 -4.279208 -32.064904 28.027825 30.132315 -128.505051 88.139220 127.695168 0.000000 0.000000 0.000000 
5.967254 74.635231 -3.999245 0.000000 0.000000 0.000000 2.349444 -55.499180 4.075456 -43.125722 1.989241 24.957568 41.219447 -3.424772 1.067800 -0.332729 -8.660560 -19.398224 -0.268426 0.296404 0.144381 0.000000 0.000000 0.000000 1.179405 -55.707043 3.692145 -31.908065 -24.502458 -39.487724 41.582834 10.477913 -1.702480 -14.912361 -5.731300 17.537976 2.797604 0.624699 0.283502 0.000000 0.000000 0.000000 3.730280 -52.483341 4.327720 10.590235 11.090228 -2.200713 3.644583 4.478738 -1.572624 0.259806 0.179298 -0.189852 0.000000 0.000000 0.000000 3.678669 4.695976 -1.178588 -2.596977 2.802343 3.536164 -8.316511 39.702981 -5.942926 0.000000 0.000000 0.000000 4.823414 4.325128 -1.880404 0.726412 -8.942935 -15.876881 -7.381245 2.306864 0.970961 -20.802121 -38.404897 -25.500341 -4.814405 -67.381128 -1.923331 0.000000 0.000000 0.000000 5.790537 5.063052 -1.267190 -1.742783 20.728716 -14.243018 1.795614 -4.648365 -3.964224 -22.505719 32.393832 25.272207 -170.214994 84.242378 169.480421 0.000000 0.000000 0.000000 
6.333348 75.429451 -3.984032 0.000000 0.000000 0.000000 2.239078 -57.542418 3.927175 -42.249692 3.698670 25.565313 40.016180 -4.014498 1.093103 -0.592712 -7.658350 -19.578326 -0.497572 0.286347 -0.051247 0.000000 0.000000 0.000000 1.118740 -57.632071 3.394681 -32.293558 -23.856025 -38.399037 40.186081 10.148008 -1.647886 -13.069815 -4.998918 17.095986 3.001854 0.635848 0.198564 0.000000 0.000000 0.000000 3.054328 -54.321598 3.630053 12.144780 10.770620 -2.893774 3.675677 4.071827 -1.792325 0.427044 0.161257 -0.125007 0.000000 0.000000 0.000000 3.515300 4.259551 -1.357138 -2.788266 2.556218 3.892301 -10.529357 40.051997 -5.319886 0.000000 0.000000 0.000000 5.148355 3.745339 -1.918930 1.123399 -8.699974 -14.963560 -8.383876 2.465439 0.668920 -29.739945 -36.478746 -29.931863 -2.531160 -68.240939 -0.001378 0.000000 0.000000 0.000000 5.774559 4.639327 -1.320136 0.670495 20.216747 -10.335423 1.950578 -3.100219 -3.120607 -14.411127 34.538183 18.622490 -174.655245 81.376090 173.771583 0.000000 0.000000 0.000000 
6.656650 76.377594 -3.908405 0.000000 0.000000 0.000000 2.049923 -60.407935 3.481784 -40.802071 5.809781 26.536552 38.740461 -4.752248 1.143859 -1.356793 -6.323566 -19.742805 -0.909838 0.232567 -0.183015 0.000000 0.000000 0.000000 1.015458 -60.360117 2.849772 -32.486060 -23.178846 -36.819948 38.056328 9.854220 -1.603573 -11.220297 -4.095934 16.719374 3.193201 0.595430 0.156229 0.000000 0.000000 0.000000 2.206012 -56.896623 2.607872 13.452829 10.152223 -3.778648 3.699113 3.643497 -2.043485 0.546094 0.283019 -0.021387 0.000000 0.000000 0.000000 3.431128 3.716697 -1.606880 -3.288290 2.224713 4.259725 -11.730662 41.187673 -4.626930 0.000000 0.000000 0.000000 5.307845 3.179586 -1.992562 1.456681 -8.303085 -13.218817 -9.181092 2.404767 0.480484 -36.962897 -33.815874 -31.261970 0.048386 -69.817688 2.163549 0.000000 0.000000 0.000000 5.645860 4.125050 -1.579961 2.404520 19.473885 -8.006166 1.931334 -1.327312 -1.758328 -9.798910 37.481298 12.098196 -173.537102 82.025531 172.267643 0.000000 0.000000 0.000000 
6.975684 77.411156 -3.788452 0.000000 0.000000 0.000000 1.914521 -64.125463 2.865989 -38.927120 8.131662 27.782933 37.674074 -5.506758 1.202007 -2.415702 -4.558218 -19.692424 -1.204879 0.139706 -0.344805 0.000000 0.000000 0.000000 0.811083 -63.838199 2.052008 -32.490903 -22.473523 -34.816859 35.343090 9.584074 -1.535514 -9.564783 -2.972151 16.251096 3.476231 0.518775 0.175837 0.000000 0.000000 0.000000 1.210181 -60.201219 1.300764 14.308510 9.334506 -4.794882 3.758999 3.287130 -2.243444 0.922449 0.337009 0.038511 0.000000 0.000000 0.000000 3.464626 3.195063 -1.828150 -4.087147 2.023167 4.561461 -11.943468 43.141193 -3.851821 0.000000 0.000000 0.000000 5.331701 2.743601 -2.063852 1.683239 -7.904475 -10.903520 -9.557220 2.251570 0.730793 -41.297919 -30.746561 -28.992596 2.114994 -72.454367 3.912410 0.000000 0.000000 0.000000 5.476818 3.628230 -1.898131 3.443305 18.485970 -7.240020 1.243233 -0.300823 0.130909 -9.246045 43.314696 6.915293 -166.014100 84.994724 164.204168 0.000000 0.000000 0.000000 
7.256557 78.500061 -3.699646 0.000000 0.000000 0.000000 1.699230 -68.483418 2.083914 -36.714989 10.612237 29.222684 36.767899 -6.172742 1.243158 -3.592306 -2.461204 -19.390767 -1.295891 0.030454 -0.549427 0.000000 0.000000 0.000000 0.504482 -67.792817 1.111130 -32.362625 -21.676741 -32.570799 32.386387 9.356158 -1.479868 -8.099997 -1.620671 15.707091 3.859281 0.427092 0.244485 0.000000 0.000000 0.000000 -0.050650 -64.022341 -0.268892 14.536234 8.334037 -5.875370 3.838673 3.017781 -2.322224 1.255250 -0.225512 -0.001735 0.000000 0.000000 0.000000 3.618681 2.710934 -1.885806 -5.046110 2.175261 4.737461 -11.133353 45.984382 -3.255206 0.000000 0.000000 0.000000 5.233582 2.470441 -2.057330 1.830433 -7.682248 -8.255991 -9.625046 2.076433 1.478614 -42.864925 -26.675304 -23.978747 3.184033 -75.186825 4.816484 0.000000 0.000000 0.000000 5.324115 3.169291 -2.125571 3.753541 17.039273 -7.680961 0.454307 -0.071471 1.864439 -13.339389 51.351480 5.102043 -143.730089 87.430670 141.471809 0.000000 0.000000 0.000000 
7.472989 79.599365 -3.587418 0.000000 0.000000 0.000000 1.312007 -73.138963 1.224951 -34.313685 13.280131 30.608089 35.774758 -6.714543 1.214613 -4.663452 -0.241500 -19.008823 -1.285966 -0.089849 -0.719987 0.000000 0.000000 0.000000 0.103953 -72.107714 0.165705 -32.133530 -20.798754 -30.324568 29.478827 9.228807 -1.475484 -6.641690 0.021424 15.312984 4.249735 0.349533 0.341952 0.000000 0.000000 0.000000 -1.489891 -68.221562 -1.977040 14.064013 7.204423 -6.917076 3.902520 2.788766 -2.279201 1.494874 -0.584265 0.214890 0.000000 0.000000 0.000000 3.897344 2.264882 -1.774796 -6.059694 2.792617 4.797344 -9.229202 49.841212 -3.204343 0.000000 0.000000 0.000000 5.017187 2.287515 -1.983244 1.920652 -7.691508 -5.511456 -9.351168 1.656045 2.496180 -42.356674 -21.135768 -17.738850 2.469521 -76.689746 4.177989 0.000000 0.000000 0.000000 5.145071 2.710587 -2.181238 3.550480 15.264732 -8.871744 -0.277411 -0.403951 3.240300 -23.007260 59.330623 9.292530 -119.313884 88.112384 117.033925 0.000000 0.000000 0.000000 
7.621119 80.678932 -3.421883 0.000000 0.000000 0.000000 1.274372 -77.736965 0.842108 -31.951731 16.097590 31.687327 34.459653 -7.168441 1.115093 -5.480863 1.852267 -18.607428 -1.322688 -0.235073 -0.784694 0.000000 0.000000 0.000000 -0.305370 -76.511520 -0.604391 -31.800910 -19.818926 -28.233553 26.828109 9.228219 -1.549075 -5.012898 1.878200 15.216425 4.349310 0.297722 0.442268 0.000000 0.000000 0.000000 -2.734923 -72.571074 -3.370248 13.015673 5.926698 -7.753620 3.947514 2.551457 -2.185313 1.972685 -1.071531 0.556620 0.000000 0.000000 0.000000 4.205014 1.840464 -1.603154 -7.047095 3.924427 4.845637 -6.155054 54.751527 -4.125007 0.000000 0.000000 0.000000 4.790297 2.119545 -1.913479 2.079040 -7.780820 -2.705394 -8.674450 0.922452 3.444359 -40.774645 -14.539586 -12.088532 0.353477 -75.551113 2.336184 0.000000 0.000000 0.000000 4.955350 2.249264 -2.115118 2.888965 13.206409 -10.369373 -0.754307 -1.025121 4.067706 -37.721615 64.474582 20.406969 -132.211057 88.090425 130.421916 0.000000 0.000000 0.000000 
7.646691 81.693588 -3.274559 0.000000 0.000000 0.000000 1.963903 -81.707886 1.362055 -29.911663 18.979380 32.426975 32.729720 -7.637753 0.959182 -5.852249 3.519728 -18.299366 -1.475021 -0.398891 -0.699650 0.000000 0.000000 0.000000 -0.048265 -80.523272 -0.536863 -31.297696 -18.801554 -26.263264 24.397238 9.259336 -1.770796 -3.352441 3.748489 15.341411 4.094975 0.290959 0.533335 0.000000 0.000000 0.000000 -3.150536 -76.830667 -3.903162 11.536082 4.525090 -8.234934 3.956919 2.309276 -2.142039 2.359312 -1.107292 0.800131 0.000000 0.000000 0.000000 4.405704 1.460059 -1.498120 -7.924540 5.338346 4.976560 -1.542731 60.284930 -6.537722 0.000000 0.000000 0.000000 4.615411 1.906719 -1.921338 2.308448 -7.752476 0.197204 -8.112980 -0.302077 4.306916 -39.307903 -7.459438 -8.064195 -1.319128 -71.323130 1.068856 0.000000 0.000000 0.000000 4.716407 1.785736 -2.038847 2.063382 11.071810 -12.031440 -1.678945 -1.234213 3.970181 -52.104030 65.591604 33.294864 -162.060978 86.851729 161.263184 0.000000 0.000000 0.000000 
